<svg xmlns="http://www.w3.org/2000/svg" xmlns:xlink="http://www.w3.org/1999/xlink" width="500" zoomAndPan="magnify" viewBox="0 0 375 374.999991" height="500" preserveAspectRatio="xMidYMid meet" version="1.0"><defs><g/><clipPath id="5fd2c03376"><path d="M 116.265625 77.246094 L 225 77.246094 L 225 214.496094 L 116.265625 214.496094 Z M 116.265625 77.246094 " clip-rule="nonzero"/></clipPath><clipPath id="8492b6dc54"><path d="M 157 77.246094 L 246.015625 77.246094 L 246.015625 181 L 157 181 Z M 157 77.246094 " clip-rule="nonzero"/></clipPath></defs><rect x="-37.5" width="450" fill="#ffffff" y="-37.499999" height="449.999989" fill-opacity="1"/><rect x="-37.5" width="450" fill="#ffffff" y="-37.499999" height="449.999989" fill-opacity="1"/><path fill="#727376" d="M 174.800781 118.960938 L 201.695312 118.960938 C 202.875 118.960938 203.839844 119.929688 203.839844 121.117188 C 203.839844 122.300781 202.871094 123.273438 201.695312 123.273438 L 174.800781 123.273438 C 173.621094 123.273438 172.65625 122.304688 172.65625 121.117188 C 172.65625 119.929688 173.621094 118.960938 174.800781 118.960938 Z M 161.925781 156.617188 L 201.695312 156.617188 C 202.875 156.617188 203.839844 157.585938 203.839844 158.773438 C 203.839844 159.957031 202.871094 160.929688 201.695312 160.929688 L 161.925781 160.929688 C 160.75 160.929688 159.78125 159.957031 159.78125 158.773438 C 159.78125 157.585938 160.746094 156.617188 161.925781 156.617188 Z M 161.925781 144.542969 L 201.695312 144.542969 C 202.875 144.542969 203.839844 145.515625 203.839844 146.699219 C 203.839844 147.882812 202.871094 148.855469 201.695312 148.855469 L 161.925781 148.855469 C 160.75 148.855469 159.78125 147.886719 159.78125 146.699219 C 159.78125 145.511719 160.746094 144.542969 161.925781 144.542969 Z M 161.925781 132.472656 L 201.695312 132.472656 C 202.875 132.472656 203.839844 133.441406 203.839844 134.625 C 203.839844 135.8125 202.871094 136.78125 201.695312 136.78125 L 161.925781 136.78125 C 160.75 136.78125 159.78125 135.8125 159.78125 134.625 C 159.78125 133.441406 160.746094 132.472656 161.925781 132.472656 Z M 161.925781 132.472656 " fill-opacity="1" fill-rule="evenodd"/><g clip-path="url(#5fd2c03376)"><path fill="#f58634" d="M 116.355469 77.332031 L 147.800781 77.332031 C 147.84375 77.332031 147.878906 77.367188 147.878906 77.410156 L 147.878906 96.964844 C 147.878906 97.007812 147.914062 97.042969 147.953125 97.042969 L 224.910156 97.042969 C 224.953125 97.042969 224.988281 97.078125 224.988281 97.121094 L 224.988281 189.320312 C 224.988281 189.363281 224.953125 189.398438 224.910156 189.398438 L 199.457031 189.398438 C 199.414062 189.398438 199.378906 189.433594 199.378906 189.476562 L 199.378906 214.421875 C 199.378906 214.464844 199.34375 214.496094 199.304688 214.496094 L 187.53125 214.496094 C 187.488281 214.496094 187.453125 214.464844 187.453125 214.421875 L 187.453125 177.492188 C 187.453125 177.449219 187.488281 177.414062 187.53125 177.414062 L 212.988281 177.414062 C 213.03125 177.414062 213.066406 177.378906 213.066406 177.335938 L 213.066406 109.105469 C 213.066406 109.0625 213.03125 109.027344 212.988281 109.027344 L 147.957031 109.027344 C 147.914062 109.027344 147.878906 109.0625 147.878906 109.105469 C 147.878906 140.257812 147.847656 171.335938 147.847656 202.4375 C 147.847656 202.480469 147.882812 202.515625 147.921875 202.515625 L 165.933594 202.515625 L 165.933594 177.492188 L 177.78125 177.492188 L 177.78125 214.496094 L 135.867188 214.496094 C 135.84375 214.496094 135.824219 214.492188 135.808594 214.476562 C 135.796875 214.460938 135.785156 214.441406 135.785156 214.421875 C 135.859375 179.496094 135.953125 144.316406 135.953125 109.105469 C 135.953125 109.0625 135.917969 109.027344 135.875 109.027344 L 116.355469 109.027344 C 116.3125 109.027344 116.277344 108.992188 116.277344 108.949219 L 116.277344 77.410156 C 116.277344 77.367188 116.3125 77.332031 116.355469 77.332031 Z M 128.28125 89.3125 L 135.875 89.3125 C 135.917969 89.3125 135.953125 89.347656 135.953125 89.390625 L 135.953125 96.96875 C 135.953125 97.011719 135.917969 97.046875 135.875 97.046875 L 128.28125 97.046875 C 128.238281 97.046875 128.203125 97.011719 128.203125 96.96875 L 128.203125 89.390625 C 128.203125 89.347656 128.238281 89.3125 128.28125 89.3125 Z M 128.28125 89.3125 " fill-opacity="1" fill-rule="evenodd"/></g><g clip-path="url(#8492b6dc54)"><path fill="#f58634" d="M 157.027344 77.246094 C 157.027344 77.292969 157.066406 77.328125 157.105469 77.328125 L 245.925781 77.328125 C 245.96875 77.328125 246.003906 77.367188 246.003906 77.402344 L 246.003906 180.101562 C 246.003906 180.144531 245.96875 180.179688 245.925781 180.179688 L 234.003906 180.179688 C 234.003906 153.453125 234.082031 116.160156 234.082031 89.386719 C 234.082031 89.246094 162.574219 89.3125 157.105469 89.3125 C 157.0625 89.3125 157.027344 89.347656 157.027344 89.386719 Z M 157.027344 77.246094 " fill-opacity="1" fill-rule="evenodd"/></g><g fill="#727376" fill-opacity="1"><g transform="translate(86.216506, 267.896862)"><g><path d="M 2.40625 -0.765625 L 2.40625 -37.828125 C 2.40625 -38.335938 2.664062 -38.59375 3.1875 -38.59375 L 14.765625 -38.59375 C 17.046875 -38.59375 18.773438 -38 19.953125 -36.8125 C 21.128906 -35.625 21.71875 -33.890625 21.71875 -31.609375 L 21.71875 -6.953125 C 21.71875 -4.703125 21.128906 -2.976562 19.953125 -1.78125 C 18.773438 -0.59375 17.046875 0 14.765625 0 L 3.1875 0 C 2.664062 0 2.40625 -0.253906 2.40625 -0.765625 Z M 8.96875 -6.375 L 13.40625 -6.375 C 14.695312 -6.375 15.34375 -7.015625 15.34375 -8.296875 L 15.34375 -30.25 C 15.34375 -31.570312 14.695312 -32.234375 13.40625 -32.234375 L 8.96875 -32.234375 Z M 8.96875 -6.375 "/></g></g></g><g fill="#727376" fill-opacity="1"><g transform="translate(110.339574, 267.896862)"><g><path d="M 2.40625 -6.953125 L 2.40625 -31.65625 C 2.40625 -33.9375 3 -35.660156 4.1875 -36.828125 C 5.382812 -38.003906 7.109375 -38.59375 9.359375 -38.59375 L 14.765625 -38.59375 C 17.046875 -38.59375 18.773438 -38.003906 19.953125 -36.828125 C 21.128906 -35.660156 21.71875 -33.9375 21.71875 -31.65625 L 21.71875 -6.953125 C 21.71875 -4.703125 21.128906 -2.976562 19.953125 -1.78125 C 18.773438 -0.59375 17.046875 0 14.765625 0 L 9.359375 0 C 7.109375 0 5.382812 -0.59375 4.1875 -1.78125 C 3 -2.976562 2.40625 -4.703125 2.40625 -6.953125 Z M 10.765625 -6.21875 L 13.5625 -6.21875 C 14.84375 -6.21875 15.484375 -6.863281 15.484375 -8.15625 L 15.484375 -30.453125 C 15.484375 -31.734375 14.84375 -32.375 13.5625 -32.375 L 10.765625 -32.375 C 9.472656 -32.375 8.828125 -31.734375 8.828125 -30.453125 L 8.828125 -8.15625 C 8.828125 -6.863281 9.472656 -6.21875 10.765625 -6.21875 Z M 10.765625 -6.21875 "/></g></g></g><g fill="#727376" fill-opacity="1"><g transform="translate(134.462642, 267.896862)"><g><path d="M 21.765625 -31.65625 L 21.765625 -26.4375 C 21.765625 -25.925781 21.503906 -25.671875 20.984375 -25.671875 L 16.15625 -25.671875 C 15.644531 -25.671875 15.390625 -25.925781 15.390625 -26.4375 L 15.390625 -30.296875 C 15.390625 -31.585938 14.75 -32.234375 13.46875 -32.234375 L 10.953125 -32.234375 C 9.660156 -32.234375 9.015625 -31.585938 9.015625 -30.296875 L 9.015625 -8.296875 C 9.015625 -7.015625 9.660156 -6.375 10.953125 -6.375 L 13.46875 -6.375 C 14.75 -6.375 15.390625 -7.015625 15.390625 -8.296875 L 15.390625 -12.15625 C 15.390625 -12.675781 15.644531 -12.9375 16.15625 -12.9375 L 20.984375 -12.9375 C 21.503906 -12.9375 21.765625 -12.675781 21.765625 -12.15625 L 21.765625 -6.953125 C 21.765625 -4.703125 21.164062 -2.976562 19.96875 -1.78125 C 18.78125 -0.59375 17.0625 0 14.8125 0 L 9.40625 0 C 7.15625 0 5.425781 -0.59375 4.21875 -1.78125 C 3.007812 -2.976562 2.40625 -4.703125 2.40625 -6.953125 L 2.40625 -31.65625 C 2.40625 -33.9375 3.007812 -35.660156 4.21875 -36.828125 C 5.425781 -38.003906 7.15625 -38.59375 9.40625 -38.59375 L 14.8125 -38.59375 C 17.0625 -38.59375 18.78125 -38.003906 19.96875 -36.828125 C 21.164062 -35.660156 21.765625 -33.9375 21.765625 -31.65625 Z M 21.765625 -31.65625 "/></g></g></g><g fill="#727376" fill-opacity="1"><g transform="translate(158.633959, 267.896862)"><g><path d="M 16.3125 -38.59375 L 20.75 -38.59375 C 21.007812 -38.59375 21.234375 -38.492188 21.421875 -38.296875 C 21.617188 -38.109375 21.71875 -37.890625 21.71875 -37.640625 L 21.71875 -6.953125 C 21.71875 -4.703125 21.128906 -2.976562 19.953125 -1.78125 C 18.773438 -0.59375 17.046875 0 14.765625 0 L 9.359375 0 C 7.109375 0 5.382812 -0.59375 4.1875 -1.78125 C 3 -2.976562 2.40625 -4.703125 2.40625 -6.953125 L 2.40625 -37.640625 C 2.40625 -37.890625 2.5 -38.109375 2.6875 -38.296875 C 2.882812 -38.492188 3.113281 -38.59375 3.375 -38.59375 L 8.015625 -38.59375 C 8.265625 -38.59375 8.484375 -38.492188 8.671875 -38.296875 C 8.867188 -38.109375 8.96875 -37.890625 8.96875 -37.640625 L 8.96875 -8.296875 C 8.96875 -7.015625 9.613281 -6.375 10.90625 -6.375 L 13.40625 -6.375 C 14.695312 -6.375 15.34375 -7.015625 15.34375 -8.296875 L 15.34375 -37.640625 C 15.34375 -37.890625 15.4375 -38.109375 15.625 -38.296875 C 15.820312 -38.492188 16.050781 -38.59375 16.3125 -38.59375 Z M 16.3125 -38.59375 "/></g></g></g><g fill="#727376" fill-opacity="1"><g transform="translate(182.757027, 267.896862)"><g><path d="M 2.40625 -0.765625 L 2.40625 -37.828125 C 2.40625 -38.335938 2.664062 -38.59375 3.1875 -38.59375 L 14.765625 -38.59375 C 17.046875 -38.59375 18.773438 -38.003906 19.953125 -36.828125 C 21.128906 -35.660156 21.71875 -33.9375 21.71875 -31.65625 L 21.71875 -19.875 C 21.71875 -17.625 21.128906 -15.90625 19.953125 -14.71875 C 18.773438 -13.53125 17.046875 -12.9375 14.765625 -12.9375 L 8.96875 -12.9375 L 8.96875 -0.765625 C 8.96875 -0.253906 8.710938 0 8.203125 0 L 3.1875 0 C 2.664062 0 2.40625 -0.253906 2.40625 -0.765625 Z M 8.96875 -19.296875 L 13.21875 -19.296875 C 14.507812 -19.296875 15.15625 -19.941406 15.15625 -21.234375 L 15.15625 -30.296875 C 15.15625 -31.585938 14.507812 -32.234375 13.21875 -32.234375 L 8.96875 -32.234375 Z M 8.96875 -19.296875 "/></g></g></g><g fill="#727376" fill-opacity="1"><g transform="translate(206.880095, 267.896862)"><g><path d="M 3.1875 -38.59375 L 8.203125 -38.59375 C 8.710938 -38.59375 8.96875 -38.335938 8.96875 -37.828125 L 8.96875 -0.765625 C 8.96875 -0.253906 8.710938 0 8.203125 0 L 3.1875 0 C 2.664062 0 2.40625 -0.253906 2.40625 -0.765625 L 2.40625 -37.828125 C 2.40625 -38.335938 2.664062 -38.59375 3.1875 -38.59375 Z M 3.1875 -38.59375 "/></g></g></g><g fill="#727376" fill-opacity="1"><g transform="translate(218.266188, 267.896862)"><g><path d="M 2.21875 -38.59375 L 19.96875 -38.59375 C 20.488281 -38.59375 20.75 -38.335938 20.75 -37.828125 L 20.75 -33 C 20.75 -32.488281 20.488281 -32.234375 19.96875 -32.234375 L 14.375 -32.234375 L 14.375 -0.765625 C 14.375 -0.253906 14.117188 0 13.609375 0 L 8.59375 0 C 8.070312 0 7.8125 -0.253906 7.8125 -0.765625 L 7.8125 -32.234375 L 2.21875 -32.234375 C 1.707031 -32.234375 1.453125 -32.488281 1.453125 -33 L 1.453125 -37.828125 C 1.453125 -38.335938 1.707031 -38.59375 2.21875 -38.59375 Z M 2.21875 -38.59375 "/></g></g></g><g fill="#727376" fill-opacity="1"><g transform="translate(240.459416, 267.896862)"><g><path d="M 21.765625 -31.65625 L 21.765625 -26.4375 C 21.765625 -25.925781 21.503906 -25.671875 20.984375 -25.671875 L 16.15625 -25.671875 C 15.644531 -25.671875 15.390625 -25.925781 15.390625 -26.4375 L 15.390625 -30.296875 C 15.390625 -31.585938 14.75 -32.234375 13.46875 -32.234375 L 10.953125 -32.234375 C 9.660156 -32.234375 9.015625 -31.585938 9.015625 -30.296875 L 9.015625 -8.296875 C 9.015625 -7.015625 9.660156 -6.375 10.953125 -6.375 L 13.46875 -6.375 C 14.75 -6.375 15.390625 -7.015625 15.390625 -8.296875 L 15.390625 -12.15625 C 15.390625 -12.675781 15.644531 -12.9375 16.15625 -12.9375 L 20.984375 -12.9375 C 21.503906 -12.9375 21.765625 -12.675781 21.765625 -12.15625 L 21.765625 -6.953125 C 21.765625 -4.703125 21.164062 -2.976562 19.96875 -1.78125 C 18.78125 -0.59375 17.0625 0 14.8125 0 L 9.40625 0 C 7.15625 0 5.425781 -0.59375 4.21875 -1.78125 C 3.007812 -2.976562 2.40625 -4.703125 2.40625 -6.953125 L 2.40625 -31.65625 C 2.40625 -33.9375 3.007812 -35.660156 4.21875 -36.828125 C 5.425781 -38.003906 7.15625 -38.59375 9.40625 -38.59375 L 14.8125 -38.59375 C 17.0625 -38.59375 18.78125 -38.003906 19.96875 -36.828125 C 21.164062 -35.660156 21.765625 -33.9375 21.765625 -31.65625 Z M 21.765625 -31.65625 "/></g></g></g><g fill="#727376" fill-opacity="1"><g transform="translate(264.630732, 267.896862)"><g><path d="M 15.15625 -22.484375 L 15.15625 -37.828125 C 15.15625 -38.335938 15.410156 -38.59375 15.921875 -38.59375 L 20.890625 -38.59375 C 21.441406 -38.59375 21.71875 -38.335938 21.71875 -37.828125 L 21.71875 -0.765625 C 21.71875 -0.253906 21.441406 0 20.890625 0 L 15.921875 0 C 15.410156 0 15.15625 -0.253906 15.15625 -0.765625 L 15.15625 -16.109375 L 8.96875 -16.109375 L 8.96875 -0.765625 C 8.96875 -0.253906 8.710938 0 8.203125 0 L 3.234375 0 C 2.679688 0 2.40625 -0.253906 2.40625 -0.765625 L 2.40625 -37.828125 C 2.40625 -38.335938 2.679688 -38.59375 3.234375 -38.59375 L 8.203125 -38.59375 C 8.710938 -38.59375 8.96875 -38.335938 8.96875 -37.828125 L 8.96875 -22.484375 Z M 15.15625 -22.484375 "/></g></g></g><g fill="#f58634" fill-opacity="1"><g transform="translate(62.475649, 295.07711)"><g><path d="M 11.890625 -6.34375 C 11.890625 -4.289062 11.304688 -2.71875 10.140625 -1.625 C 8.972656 -0.539062 7.289062 0 5.09375 0 L 1.5625 0 L 1.5625 -12.453125 L 5.46875 -12.453125 C 7.5 -12.453125 9.078125 -11.914062 10.203125 -10.84375 C 11.328125 -9.769531 11.890625 -8.269531 11.890625 -6.34375 Z M 9.15625 -6.28125 C 9.15625 -8.945312 7.972656 -10.28125 5.609375 -10.28125 L 4.203125 -10.28125 L 4.203125 -2.1875 L 5.34375 -2.1875 C 7.882812 -2.1875 9.15625 -3.550781 9.15625 -6.28125 Z M 9.15625 -6.28125 "/></g></g></g><g fill="#f58634" fill-opacity="1"><g transform="translate(79.709082, 295.07711)"><g><path d="M 12.859375 -6.234375 C 12.859375 -4.179688 12.347656 -2.597656 11.328125 -1.484375 C 10.304688 -0.378906 8.84375 0.171875 6.9375 0.171875 C 5.03125 0.171875 3.566406 -0.378906 2.546875 -1.484375 C 1.523438 -2.597656 1.015625 -4.191406 1.015625 -6.265625 C 1.015625 -8.328125 1.523438 -9.90625 2.546875 -11 C 3.578125 -12.09375 5.046875 -12.640625 6.953125 -12.640625 C 8.867188 -12.640625 10.332031 -12.085938 11.34375 -10.984375 C 12.351562 -9.890625 12.859375 -8.304688 12.859375 -6.234375 Z M 3.78125 -6.234375 C 3.78125 -4.847656 4.039062 -3.800781 4.5625 -3.09375 C 5.09375 -2.394531 5.882812 -2.046875 6.9375 -2.046875 C 9.039062 -2.046875 10.09375 -3.441406 10.09375 -6.234375 C 10.09375 -9.046875 9.046875 -10.453125 6.953125 -10.453125 C 5.898438 -10.453125 5.109375 -10.097656 4.578125 -9.390625 C 4.046875 -8.679688 3.78125 -7.628906 3.78125 -6.234375 Z M 3.78125 -6.234375 "/></g></g></g><g fill="#f58634" fill-opacity="1"><g transform="translate(97.913158, 295.07711)"><g><path d="M 6.859375 -10.4375 C 5.859375 -10.4375 5.085938 -10.0625 4.546875 -9.3125 C 4.003906 -8.5625 3.734375 -7.519531 3.734375 -6.1875 C 3.734375 -3.414062 4.773438 -2.03125 6.859375 -2.03125 C 7.734375 -2.03125 8.789062 -2.25 10.03125 -2.6875 L 10.03125 -0.46875 C 9.007812 -0.0390625 7.867188 0.171875 6.609375 0.171875 C 4.796875 0.171875 3.410156 -0.375 2.453125 -1.46875 C 1.492188 -2.570312 1.015625 -4.148438 1.015625 -6.203125 C 1.015625 -7.492188 1.25 -8.625 1.71875 -9.59375 C 2.1875 -10.570312 2.863281 -11.320312 3.75 -11.84375 C 4.632812 -12.363281 5.671875 -12.625 6.859375 -12.625 C 8.066406 -12.625 9.28125 -12.332031 10.5 -11.75 L 9.640625 -9.609375 C 9.179688 -9.828125 8.710938 -10.019531 8.234375 -10.1875 C 7.765625 -10.351562 7.304688 -10.4375 6.859375 -10.4375 Z M 6.859375 -10.4375 "/></g></g></g><g fill="#f58634" fill-opacity="1"><g transform="translate(113.350052, 295.07711)"><g><path d="M 11.703125 -12.453125 L 11.703125 -4.390625 C 11.703125 -3.472656 11.492188 -2.664062 11.078125 -1.96875 C 10.671875 -1.28125 10.078125 -0.75 9.296875 -0.375 C 8.515625 -0.0078125 7.597656 0.171875 6.546875 0.171875 C 4.941406 0.171875 3.695312 -0.238281 2.8125 -1.0625 C 1.925781 -1.882812 1.484375 -3.003906 1.484375 -4.421875 L 1.484375 -12.453125 L 4.109375 -12.453125 L 4.109375 -4.828125 C 4.109375 -3.867188 4.300781 -3.164062 4.6875 -2.71875 C 5.070312 -2.269531 5.710938 -2.046875 6.609375 -2.046875 C 7.472656 -2.046875 8.097656 -2.269531 8.484375 -2.71875 C 8.867188 -3.164062 9.0625 -3.875 9.0625 -4.84375 L 9.0625 -12.453125 Z M 11.703125 -12.453125 "/></g></g></g><g fill="#f58634" fill-opacity="1"><g transform="translate(130.855946, 295.07711)"><g><path d="M 6.84375 0 L 3.84375 -9.765625 L 3.765625 -9.765625 C 3.867188 -7.773438 3.921875 -6.453125 3.921875 -5.796875 L 3.921875 0 L 1.5625 0 L 1.5625 -12.453125 L 5.15625 -12.453125 L 8.109375 -2.921875 L 8.15625 -2.921875 L 11.28125 -12.453125 L 14.875 -12.453125 L 14.875 0 L 12.40625 0 L 12.40625 -5.890625 C 12.40625 -6.171875 12.410156 -6.492188 12.421875 -6.859375 C 12.429688 -7.222656 12.472656 -8.1875 12.546875 -9.75 L 12.46875 -9.75 L 9.25 0 Z M 6.84375 0 "/></g></g></g><g fill="#f58634" fill-opacity="1"><g transform="translate(151.622858, 295.07711)"><g><path d="M 8.734375 0 L 1.5625 0 L 1.5625 -12.453125 L 8.734375 -12.453125 L 8.734375 -10.28125 L 4.203125 -10.28125 L 4.203125 -7.546875 L 8.421875 -7.546875 L 8.421875 -5.390625 L 4.203125 -5.390625 L 4.203125 -2.1875 L 8.734375 -2.1875 Z M 8.734375 0 "/></g></g></g><g fill="#f58634" fill-opacity="1"><g transform="translate(165.714476, 295.07711)"><g><path d="M 12.609375 0 L 9.25 0 L 3.84375 -9.421875 L 3.765625 -9.421875 C 3.867188 -7.753906 3.921875 -6.566406 3.921875 -5.859375 L 3.921875 0 L 1.5625 0 L 1.5625 -12.453125 L 4.890625 -12.453125 L 10.296875 -3.125 L 10.359375 -3.125 C 10.273438 -4.738281 10.234375 -5.882812 10.234375 -6.5625 L 10.234375 -12.453125 L 12.609375 -12.453125 Z M 12.609375 0 "/></g></g></g><g fill="#f58634" fill-opacity="1"><g transform="translate(184.216562, 295.07711)"><g><path d="M 6.375 0 L 3.734375 0 L 3.734375 -10.25 L 0.34375 -10.25 L 0.34375 -12.453125 L 9.75 -12.453125 L 9.75 -10.25 L 6.375 -10.25 Z M 6.375 0 "/></g></g></g><g fill="#f58634" fill-opacity="1"><g transform="translate(198.640236, 295.07711)"><g/></g></g><g fill="#f58634" fill-opacity="1"><g transform="translate(207.495491, 295.07711)"><g><path d="M 8.921875 -3.453125 C 8.921875 -2.328125 8.515625 -1.441406 7.703125 -0.796875 C 6.890625 -0.148438 5.765625 0.171875 4.328125 0.171875 C 2.992188 0.171875 1.816406 -0.078125 0.796875 -0.578125 L 0.796875 -3.03125 C 1.640625 -2.65625 2.351562 -2.390625 2.9375 -2.234375 C 3.519531 -2.085938 4.050781 -2.015625 4.53125 -2.015625 C 5.101562 -2.015625 5.546875 -2.125 5.859375 -2.34375 C 6.171875 -2.5625 6.328125 -2.890625 6.328125 -3.328125 C 6.328125 -3.566406 6.257812 -3.78125 6.125 -3.96875 C 5.988281 -4.164062 5.785156 -4.351562 5.515625 -4.53125 C 5.253906 -4.707031 4.71875 -4.988281 3.90625 -5.375 C 3.144531 -5.726562 2.570312 -6.066406 2.1875 -6.390625 C 1.8125 -6.722656 1.507812 -7.109375 1.28125 -7.546875 C 1.050781 -7.984375 0.9375 -8.492188 0.9375 -9.078125 C 0.9375 -10.179688 1.3125 -11.046875 2.0625 -11.671875 C 2.8125 -12.304688 3.84375 -12.625 5.15625 -12.625 C 5.800781 -12.625 6.414062 -12.546875 7 -12.390625 C 7.59375 -12.242188 8.210938 -12.03125 8.859375 -11.75 L 8 -9.703125 C 7.332031 -9.972656 6.78125 -10.160156 6.34375 -10.265625 C 5.914062 -10.378906 5.492188 -10.4375 5.078125 -10.4375 C 4.578125 -10.4375 4.191406 -10.316406 3.921875 -10.078125 C 3.660156 -9.847656 3.53125 -9.546875 3.53125 -9.171875 C 3.53125 -8.941406 3.582031 -8.738281 3.6875 -8.5625 C 3.789062 -8.382812 3.960938 -8.210938 4.203125 -8.046875 C 4.441406 -7.890625 5 -7.601562 5.875 -7.1875 C 7.039062 -6.632812 7.835938 -6.078125 8.265625 -5.515625 C 8.703125 -4.953125 8.921875 -4.265625 8.921875 -3.453125 Z M 8.921875 -3.453125 "/></g></g></g><g fill="#f58634" fill-opacity="1"><g transform="translate(221.42533, 295.07711)"><g><path d="M 11.765625 0 L 9.140625 0 L 9.140625 -5.375 L 4.203125 -5.375 L 4.203125 0 L 1.5625 0 L 1.5625 -12.453125 L 4.203125 -12.453125 L 4.203125 -7.5625 L 9.140625 -7.5625 L 9.140625 -12.453125 L 11.765625 -12.453125 Z M 11.765625 0 "/></g></g></g><g fill="#f58634" fill-opacity="1"><g transform="translate(239.092992, 295.07711)"><g><path d="M 9.1875 0 L 8.28125 -2.96875 L 3.75 -2.96875 L 2.84375 0 L 0 0 L 4.390625 -12.5 L 7.625 -12.5 L 12.03125 0 Z M 7.65625 -5.171875 C 6.820312 -7.859375 6.351562 -9.378906 6.25 -9.734375 C 6.144531 -10.085938 6.066406 -10.363281 6.015625 -10.5625 C 5.828125 -9.832031 5.289062 -8.035156 4.40625 -5.171875 Z M 7.65625 -5.171875 "/></g></g></g><g fill="#f58634" fill-opacity="1"><g transform="translate(255.449437, 295.07711)"><g><path d="M 4.203125 -6.921875 L 5.0625 -6.921875 C 5.894531 -6.921875 6.507812 -7.054688 6.90625 -7.328125 C 7.300781 -7.609375 7.5 -8.050781 7.5 -8.65625 C 7.5 -9.238281 7.296875 -9.65625 6.890625 -9.90625 C 6.484375 -10.15625 5.851562 -10.28125 5 -10.28125 L 4.203125 -10.28125 Z M 4.203125 -4.78125 L 4.203125 0 L 1.5625 0 L 1.5625 -12.453125 L 5.1875 -12.453125 C 6.882812 -12.453125 8.140625 -12.140625 8.953125 -11.515625 C 9.765625 -10.898438 10.171875 -9.96875 10.171875 -8.71875 C 10.171875 -7.988281 9.96875 -7.335938 9.5625 -6.765625 C 9.15625 -6.191406 8.582031 -5.742188 7.84375 -5.421875 C 9.71875 -2.617188 10.941406 -0.8125 11.515625 0 L 8.578125 0 L 5.609375 -4.78125 Z M 4.203125 -4.78125 "/></g></g></g><g fill="#f58634" fill-opacity="1"><g transform="translate(271.286502, 295.07711)"><g><path d="M 1.5625 0 L 1.5625 -12.453125 L 4.203125 -12.453125 L 4.203125 0 Z M 1.5625 0 "/></g></g></g><g fill="#f58634" fill-opacity="1"><g transform="translate(281.38486, 295.07711)"><g><path d="M 12.609375 0 L 9.25 0 L 3.84375 -9.421875 L 3.765625 -9.421875 C 3.867188 -7.753906 3.921875 -6.566406 3.921875 -5.859375 L 3.921875 0 L 1.5625 0 L 1.5625 -12.453125 L 4.890625 -12.453125 L 10.296875 -3.125 L 10.359375 -3.125 C 10.273438 -4.738281 10.234375 -5.882812 10.234375 -6.5625 L 10.234375 -12.453125 L 12.609375 -12.453125 Z M 12.609375 0 "/></g></g></g><g fill="#f58634" fill-opacity="1"><g transform="translate(299.886934, 295.07711)"><g><path d="M 6.296875 -6.984375 L 11.234375 -6.984375 L 11.234375 -0.53125 C 10.429688 -0.269531 9.675781 -0.0859375 8.96875 0.015625 C 8.257812 0.117188 7.535156 0.171875 6.796875 0.171875 C 4.921875 0.171875 3.488281 -0.378906 2.5 -1.484375 C 1.507812 -2.585938 1.015625 -4.171875 1.015625 -6.234375 C 1.015625 -8.242188 1.585938 -9.8125 2.734375 -10.9375 C 3.890625 -12.0625 5.484375 -12.625 7.515625 -12.625 C 8.796875 -12.625 10.03125 -12.367188 11.21875 -11.859375 L 10.34375 -9.75 C 9.425781 -10.207031 8.476562 -10.4375 7.5 -10.4375 C 6.363281 -10.4375 5.453125 -10.050781 4.765625 -9.28125 C 4.078125 -8.507812 3.734375 -7.476562 3.734375 -6.1875 C 3.734375 -4.832031 4.007812 -3.800781 4.5625 -3.09375 C 5.113281 -2.382812 5.914062 -2.03125 6.96875 -2.03125 C 7.519531 -2.03125 8.082031 -2.085938 8.65625 -2.203125 L 8.65625 -4.796875 L 6.296875 -4.796875 Z M 6.296875 -6.984375 "/></g></g></g><g fill="#f58634" fill-opacity="1"><g transform="translate(86.299866, 319.077109)"><g><path d="M 13.6875 0 L 10.6875 0 L 9 -6.546875 C 8.9375 -6.773438 8.828125 -7.253906 8.671875 -7.984375 C 8.523438 -8.710938 8.441406 -9.203125 8.421875 -9.453125 C 8.390625 -9.140625 8.304688 -8.644531 8.171875 -7.96875 C 8.035156 -7.289062 7.925781 -6.804688 7.84375 -6.515625 L 6.171875 0 L 3.171875 0 L 0 -12.453125 L 2.59375 -12.453125 L 4.1875 -5.65625 C 4.46875 -4.394531 4.671875 -3.304688 4.796875 -2.390625 C 4.828125 -2.710938 4.898438 -3.210938 5.015625 -3.890625 C 5.140625 -4.566406 5.257812 -5.09375 5.375 -5.46875 L 7.1875 -12.453125 L 9.6875 -12.453125 L 11.5 -5.46875 C 11.570312 -5.15625 11.664062 -4.675781 11.78125 -4.03125 C 11.90625 -3.394531 12 -2.847656 12.0625 -2.390625 C 12.125 -2.835938 12.21875 -3.390625 12.34375 -4.046875 C 12.46875 -4.710938 12.578125 -5.25 12.671875 -5.65625 L 14.265625 -12.453125 L 16.859375 -12.453125 Z M 13.6875 0 "/></g></g></g><g fill="#f58634" fill-opacity="1"><g transform="translate(107.483983, 319.077109)"><g><path d="M 1.5625 0 L 1.5625 -12.453125 L 4.203125 -12.453125 L 4.203125 0 Z M 1.5625 0 "/></g></g></g><g fill="#f58634" fill-opacity="1"><g transform="translate(117.582346, 319.077109)"><g><path d="M 6.375 0 L 3.734375 0 L 3.734375 -10.25 L 0.34375 -10.25 L 0.34375 -12.453125 L 9.75 -12.453125 L 9.75 -10.25 L 6.375 -10.25 Z M 6.375 0 "/></g></g></g><g fill="#f58634" fill-opacity="1"><g transform="translate(132.006026, 319.077109)"><g><path d="M 11.765625 0 L 9.140625 0 L 9.140625 -5.375 L 4.203125 -5.375 L 4.203125 0 L 1.5625 0 L 1.5625 -12.453125 L 4.203125 -12.453125 L 4.203125 -7.5625 L 9.140625 -7.5625 L 9.140625 -12.453125 L 11.765625 -12.453125 Z M 11.765625 0 "/></g></g></g><g fill="#f58634" fill-opacity="1"><g transform="translate(149.673694, 319.077109)"><g/></g></g><g fill="#f58634" fill-opacity="1"><g transform="translate(158.528954, 319.077109)"><g><path d="M 9.1875 0 L 8.28125 -2.96875 L 3.75 -2.96875 L 2.84375 0 L 0 0 L 4.390625 -12.5 L 7.625 -12.5 L 12.03125 0 Z M 7.65625 -5.171875 C 6.820312 -7.859375 6.351562 -9.378906 6.25 -9.734375 C 6.144531 -10.085938 6.066406 -10.363281 6.015625 -10.5625 C 5.828125 -9.832031 5.289062 -8.035156 4.40625 -5.171875 Z M 7.65625 -5.171875 "/></g></g></g><g fill="#f58634" fill-opacity="1"><g transform="translate(174.885404, 319.077109)"><g><path d="M 12.609375 0 L 9.25 0 L 3.84375 -9.421875 L 3.765625 -9.421875 C 3.867188 -7.753906 3.921875 -6.566406 3.921875 -5.859375 L 3.921875 0 L 1.5625 0 L 1.5625 -12.453125 L 4.890625 -12.453125 L 10.296875 -3.125 L 10.359375 -3.125 C 10.273438 -4.738281 10.234375 -5.882812 10.234375 -6.5625 L 10.234375 -12.453125 L 12.609375 -12.453125 Z M 12.609375 0 "/></g></g></g><g fill="#f58634" fill-opacity="1"><g transform="translate(193.38749, 319.077109)"><g><path d="M 9.1875 0 L 8.28125 -2.96875 L 3.75 -2.96875 L 2.84375 0 L 0 0 L 4.390625 -12.5 L 7.625 -12.5 L 12.03125 0 Z M 7.65625 -5.171875 C 6.820312 -7.859375 6.351562 -9.378906 6.25 -9.734375 C 6.144531 -10.085938 6.066406 -10.363281 6.015625 -10.5625 C 5.828125 -9.832031 5.289062 -8.035156 4.40625 -5.171875 Z M 7.65625 -5.171875 "/></g></g></g><g fill="#f58634" fill-opacity="1"><g transform="translate(209.743934, 319.077109)"><g><path d="M 1.5625 0 L 1.5625 -12.453125 L 4.203125 -12.453125 L 4.203125 -2.1875 L 9.25 -2.1875 L 9.25 0 Z M 1.5625 0 "/></g></g></g><g fill="#f58634" fill-opacity="1"><g transform="translate(223.920691, 319.077109)"><g><path d="M 5.4375 -7.328125 L 8.03125 -12.453125 L 10.875 -12.453125 L 6.75 -4.84375 L 6.75 0 L 4.125 0 L 4.125 -4.765625 L 0 -12.453125 L 2.859375 -12.453125 Z M 5.4375 -7.328125 "/></g></g></g><g fill="#f58634" fill-opacity="1"><g transform="translate(239.127691, 319.077109)"><g><path d="M 6.375 0 L 3.734375 0 L 3.734375 -10.25 L 0.34375 -10.25 L 0.34375 -12.453125 L 9.75 -12.453125 L 9.75 -10.25 L 6.375 -10.25 Z M 6.375 0 "/></g></g></g><g fill="#f58634" fill-opacity="1"><g transform="translate(253.551365, 319.077109)"><g><path d="M 1.5625 0 L 1.5625 -12.453125 L 4.203125 -12.453125 L 4.203125 0 Z M 1.5625 0 "/></g></g></g><g fill="#f58634" fill-opacity="1"><g transform="translate(263.649723, 319.077109)"><g><path d="M 6.859375 -10.4375 C 5.859375 -10.4375 5.085938 -10.0625 4.546875 -9.3125 C 4.003906 -8.5625 3.734375 -7.519531 3.734375 -6.1875 C 3.734375 -3.414062 4.773438 -2.03125 6.859375 -2.03125 C 7.734375 -2.03125 8.789062 -2.25 10.03125 -2.6875 L 10.03125 -0.46875 C 9.007812 -0.0390625 7.867188 0.171875 6.609375 0.171875 C 4.796875 0.171875 3.410156 -0.375 2.453125 -1.46875 C 1.492188 -2.570312 1.015625 -4.148438 1.015625 -6.203125 C 1.015625 -7.492188 1.25 -8.625 1.71875 -9.59375 C 2.1875 -10.570312 2.863281 -11.320312 3.75 -11.84375 C 4.632812 -12.363281 5.671875 -12.625 6.859375 -12.625 C 8.066406 -12.625 9.28125 -12.332031 10.5 -11.75 L 9.640625 -9.609375 C 9.179688 -9.828125 8.710938 -10.019531 8.234375 -10.1875 C 7.765625 -10.351562 7.304688 -10.4375 6.859375 -10.4375 Z M 6.859375 -10.4375 "/></g></g></g><g fill="#f58634" fill-opacity="1"><g transform="translate(279.086612, 319.077109)"><g><path d="M 8.921875 -3.453125 C 8.921875 -2.328125 8.515625 -1.441406 7.703125 -0.796875 C 6.890625 -0.148438 5.765625 0.171875 4.328125 0.171875 C 2.992188 0.171875 1.816406 -0.078125 0.796875 -0.578125 L 0.796875 -3.03125 C 1.640625 -2.65625 2.351562 -2.390625 2.9375 -2.234375 C 3.519531 -2.085938 4.050781 -2.015625 4.53125 -2.015625 C 5.101562 -2.015625 5.546875 -2.125 5.859375 -2.34375 C 6.171875 -2.5625 6.328125 -2.890625 6.328125 -3.328125 C 6.328125 -3.566406 6.257812 -3.78125 6.125 -3.96875 C 5.988281 -4.164062 5.785156 -4.351562 5.515625 -4.53125 C 5.253906 -4.707031 4.71875 -4.988281 3.90625 -5.375 C 3.144531 -5.726562 2.570312 -6.066406 2.1875 -6.390625 C 1.8125 -6.722656 1.507812 -7.109375 1.28125 -7.546875 C 1.050781 -7.984375 0.9375 -8.492188 0.9375 -9.078125 C 0.9375 -10.179688 1.3125 -11.046875 2.0625 -11.671875 C 2.8125 -12.304688 3.84375 -12.625 5.15625 -12.625 C 5.800781 -12.625 6.414062 -12.546875 7 -12.390625 C 7.59375 -12.242188 8.210938 -12.03125 8.859375 -11.75 L 8 -9.703125 C 7.332031 -9.972656 6.78125 -10.160156 6.34375 -10.265625 C 5.914062 -10.378906 5.492188 -10.4375 5.078125 -10.4375 C 4.578125 -10.4375 4.191406 -10.316406 3.921875 -10.078125 C 3.660156 -9.847656 3.53125 -9.546875 3.53125 -9.171875 C 3.53125 -8.941406 3.582031 -8.738281 3.6875 -8.5625 C 3.789062 -8.382812 3.960938 -8.210938 4.203125 -8.046875 C 4.441406 -7.890625 5 -7.601562 5.875 -7.1875 C 7.039062 -6.632812 7.835938 -6.078125 8.265625 -5.515625 C 8.703125 -4.953125 8.921875 -4.265625 8.921875 -3.453125 Z M 8.921875 -3.453125 "/></g></g></g></svg>